#!OML:ASF F:\VICON\USERDATA\INSTALL\rory3\rory3.ASF
:FULLY-SPECIFIED
:DEGREES
1918
root -5.05142 17.8771 -2.59956 -185.829 125.185 -187.813
lowerback 3.30621 -3.72369 -5.70594
upperback -0.52839 -5.20653 -0.962685
thorax -1.97878 -2.52924 2.42933
lowerneck -12.1229 -16.1069 -16.6902
upperneck 14.6969 -21.2041 11.8291
head 9.67733 -9.97163 3.56919
rclavicle 3.19049e-014 2.22639e-014
rhumerus -26.8048 2.07864 -57.4352
rradius 86.8831
rwrist 19.4861
rhand -32.9492 5.5108
rfingers 7.12502
rthumb -6.16521 -24.3795
lclavicle 3.19049e-014 2.22639e-014
lhumerus -37.8792 22.1047 66.419
lradius 27.8402
lwrist -8.82546
lhand -12.7486 26.9336
lfingers 7.12502
lthumb 13.3355 1136.49
rfemur -8.15803 4.51784 27.7346
rtibia 26.0809
rfoot -9.68004 8.67261
rtoes 23.1309
lfemur -7.2322 -6.23083 -2.27258
ltibia 37.9067
lfoot -11.9057 1.63513
ltoes -6.90924
1919
root -5.02509 17.8653 -2.62174 -185.528 125.252 -187.558
lowerback 3.28095 -3.75914 -5.81881
upperback -0.372232 -5.2482 -0.87251
thorax -1.78136 -2.55745 2.57565
lowerneck -12.5326 -16.1929 -16.8032
upperneck 14.6715 -21.2401 11.8713
head 9.7632 -9.96927 3.56007
rclavicle 5.14045e-014 0
rhumerus -27.8536 1.58953 -59.5972
rradius 84.8292
rwrist 19.2928
rhand -31.526 5.72441
rfingers 7.12502
rthumb -4.79104 -24.2014
lclavicle 5.14045e-014 0
lhumerus -37.7257 21.5587 67.1089
lradius 28.3149
lwrist -7.9195
lhand -12.2334 25.5374
lfingers 7.12502
lthumb 13.832 1135.06
rfemur -8.45047 4.69594 27.4564
rtibia 26.5501
rfoot -9.99197 8.76725
rtoes 22.8737
lfemur -7.20221 -6.62068 -2.43346
ltibia 36.3844
lfoot -12.3474 1.99194
ltoes -7.73311
1920
root -5.00037 17.856 -2.64345 -185.326 125.384 -187.575
lowerback 3.14515 -3.80512 -5.84378
upperback -0.349306 -5.29803 -0.72117
thorax -1.66076 -2.58634 2.73397
lowerneck -12.4427 -16.1342 -16.9779
upperneck 14.4575 -21.1534 12.0671
head 9.70507 -9.92851 3.67411
rclavicle 2.72987e-014 -1.27222e-014
rhumerus -28.8446 0.99572 -61.6577
rradius 82.4227
rwrist 19.2144
rhand -30.1941 5.91077
rfingers 7.12502
rthumb -3.50487 -24.0402
lclavicle 2.72987e-014 -1.27222e-014
lhumerus -37.9116 20.5427 67.8715
lradius 29.1313
lwrist -6.5526
lhand -12.3255 26.0136
lfingers 7.12502
lthumb 13.7433 1135.54
rfemur -8.86553 4.90993 27.3587
rtibia 26.9968
rfoot -10.2423 8.84232
rtoes 23.0034
lfemur -7.31763 -6.86666 -2.35417
ltibia 34.9232
lfoot -12.6816 2.34674
ltoes -9.05848
1921
root -4.97508 17.8484 -2.66607 -185.04 125.603 -187.474
lowerback 3.03759 -3.79819 -5.95095
upperback -0.381314 -5.28472 -0.569602
thorax -1.61099 -2.5797 2.94069
lowerneck -12.1945 -16.0481 -17.2059
upperneck 14.2759 -21.0393 12.2249
head 9.6276 -9.88851 3.79874
rclavicle -1.75693e-014 7.95139e-015
rhumerus -29.7468 0.297323 -63.4878
rradius 79.7522
rwrist 19.1381
rhand -29.1518 5.63557
rfingers 7.12502
rthumb -2.49832 -24.3295
lclavicle -1.75693e-014 7.95139e-015
lhumerus -38.1529 19.9682 68.4055
lradius 29.6831
lwrist -5.84996
lhand -12.6703 26.5915
lfingers 7.12502
lthumb 13.411 1136.14
rfemur -9.25387 5.06723 27.1856
rtibia 27.405
rfoot -10.3791 8.99291
rtoes 23.5427
lfemur -7.43176 -7.05268 -2.3621
ltibia 33.5296
lfoot -13.3231 2.45399
ltoes -10.5789
1922
root -4.94536 17.8428 -2.69348 -184.626 125.814 -187.059
lowerback 3.04931 -3.80108 -6.1603
upperback -0.352466 -5.2945 -0.470647
thorax -1.55891 -2.58479 3.15678
lowerneck -12.2884 -16.0442 -17.3416
upperneck 14.3461 -20.9683 12.0992
head 9.65683 -9.86726 3.78108
rclavicle -1.11956e-013 -1.43125e-014
rhumerus -30.3589 -0.544927 -65.1414
rradius 76.8131
rwrist 19.1845
rhand -27.7921 5.19912
rfingers 7.12502
rthumb -1.18516 -24.7773
lclavicle -1.11956e-013 -1.43125e-014
lhumerus -38.3138 19.9657 68.7028
lradius 29.9257
lwrist -5.79213
lhand -12.7442 26.5801
lfingers 7.12502
lthumb 13.3398 1136.13
rfemur -9.51118 5.13132 26.7806
rtibia 27.7993
rfoot -10.5258 9.22688
rtoes 23.9925
lfemur -7.42415 -7.36357 -2.66833
ltibia 32.1866
lfoot -14.1271 2.65989
ltoes -12.4908
1923
root -4.91637 17.8319 -2.72428 -184.385 125.962 -186.713
lowerback 3.23042 -3.84989 -6.2931
upperback -0.266848 -5.37335 -0.40128
thorax -1.54542 -2.62512 3.31284
lowerneck -12.5388 -16.0519 -17.3883
upperneck 14.4653 -20.9114 11.9769
head 9.72313 -9.83966 3.73859
rclavicle -1.71328e-014 1.27222e-014
rhumerus -30.6838 -1.63854 -66.7514
rradius 73.5802
rwrist 19.5465
rhand -26.2892 4.78881
rfingers 7.12502
rthumb 0.266423 -25.1908
lclavicle -1.71328e-014 1.27222e-014
lhumerus -38.3654 20.1078 68.8581
lradius 30.0568
lwrist -5.68455
lhand -12.6421 26.1467
lfingers 7.12502
lthumb 13.4382 1135.69
rfemur -9.65983 5.0775 26.4137
rtibia 28.2108
rfoot -10.7411 9.49745
rtoes 24.0125
lfemur -7.32533 -7.7332 -2.95029
ltibia 30.9074
lfoot -14.7917 2.85256
ltoes -13.3065
1924
root -4.89298 17.8171 -2.74365 -184.254 125.844 -186.491
lowerback 3.41785 -3.97184 -6.53058
upperback -0.178912 -5.55398 -0.317698
thorax -1.51053 -2.71614 3.54398
lowerneck -12.8433 -16.0334 -17.36
upperneck 14.8066 -20.8353 11.7917
head 9.85805 -9.80007 3.66251
rclavicle -1.17904e-013 -1.11319e-014
rhumerus -30.8584 -2.86436 -68.2405
rradius 70.0302
rwrist 19.8843
rhand -24.9199 4.33452
rfingers 7.12502
rthumb 1.58896 -25.6393
lclavicle -1.17904e-013 -1.11319e-014
lhumerus -38.3804 20.1524 68.9995
lradius 30.1867
lwrist -5.54924
lhand -12.5716 25.8165
lfingers 7.12502
lthumb 13.5061 1135.36
rfemur -9.72982 5.18129 26.1895
rtibia 28.6088
rfoot -11.2213 9.42146
rtoes 23.7143
lfemur -7.33745 -8.12214 -3.08769
ltibia 29.7306
lfoot -15.4359 2.90905
ltoes -13.1445
1925
root -4.8681 17.8027 -2.7742 -184.074 125.952 -186.419
lowerback 3.5146 -4.00123 -6.52437
upperback -0.195374 -5.60002 -0.217561
thorax -1.56735 -2.73701 3.65328
lowerneck -13.2517 -16.1329 -17.1834
upperneck 15.576 -20.8848 11.1651
head 10.1093 -9.84014 3.37998
rclavicle 7.33018e-014 3.81667e-014
rhumerus -31.0399 -4.16641 -69.522
rradius 66.3181
rwrist 20.107
rhand -23.8541 3.79368
rfingers 7.12502
rthumb 2.61824 -26.17
lclavicle 7.33018e-014 3.81667e-014
lhumerus -38.4542 20.0617 69.2026
lradius 30.3507
lwrist -5.50406
lhand -12.6041 25.8292
lfingers 7.12502
lthumb 13.4748 1135.37
rfemur -10.0255 5.3487 26.0077
rtibia 28.9687
rfoot -11.4759 9.48027
rtoes 23.2327
lfemur -7.5569 -8.33749 -3.17872
ltibia 28.7238
lfoot -16.1382 3.45462
ltoes -13.3274
1926
root -4.84055 17.788 -2.80377 -184.174 126.279 -186.708
lowerback 3.50959 -3.97819 -6.31257
upperback -0.186629 -5.55819 -0.0145352
thorax -1.55958 -2.71909 3.74352
lowerneck -13.508 -16.1361 -17.0555
upperneck 15.8004 -20.7888 10.7163
head 10.1487 -9.81597 3.21288
rclavicle 6.49777e-014 -7.95139e-016
rhumerus -31.2848 -5.64709 -70.6405
rradius 62.8043
rwrist 20.6671
rhand -23.25 2.58526
rfingers 7.12502
rthumb 3.20163 -27.3704
lclavicle 6.49777e-014 -7.95139e-016
lhumerus -38.418 20.5177 69.2162
lradius 30.2039
lwrist -5.97768
lhand -12.6279 26.0573
lfingers 7.12502
lthumb 13.4519 1135.6
rfemur -10.3213 5.6675 26.0654
rtibia 29.31
rfoot -11.6782 9.5589
rtoes 22.8346
lfemur -7.75992 -8.35642 -3.03778
ltibia 27.8668
lfoot -16.7847 4.05743
ltoes -13.4746
